<?xml version="1.0" encoding="utf-8"?>
<!-- Generator: Adobe Illustrator 25.0.1, SVG Export Plug-In . SVG Version: 6.00 Build 0)  -->
<svg version="1.1" id="图层_1" xmlns="http://www.w3.org/2000/svg" xmlns:xlink="http://www.w3.org/1999/xlink" x="0px" y="0px"
	 viewBox="0 0 283.5 283.5" style="enable-background:new 0 0 283.5 283.5;" xml:space="preserve">
<style type="text/css">
	.st0{fill:#00BCFF;}
	.st1{fill:none;stroke:#231815;stroke-miterlimit:10;}
	.st2{fill:#FFFFFF;}
</style>
<circle class="st0" cx="142.2" cy="141.7" r="135.8"/>
<path class="st1" d="M142.2,141.7"/>
<g>
	<g>
		<g id="LB_8_">
			<path class="st2" d="M87.9,165.3c-2,0-3.9-0.5-5.7-1.7c-5-3.1-6.4-9.7-3.3-14.7l39-61.4c3.1-5,9.7-6.4,14.7-3.3
				c5,3.1,6.4,9.7,3.3,14.7l-39,61.4C94.9,163.5,91.4,165.3,87.9,165.3L87.9,165.3z"/>
		</g>
		<g id="RT_8_">
			<path class="st2" d="M139.2,190.6c-6.8,0-13-0.9-17.7-2.7c-3-1.1-5.4-3.5-6.4-6.6s-0.6-6.4,1.1-9.1l33.7-52.9
				c3.2-5,9.7-6.4,14.7-3.3c5,3.2,6.4,9.7,3.3,14.7l-24.5,38.4c4.9-0.4,10.6-1.4,16.3-3.7c13.8-5.4,24.6-15.9,30.6-29.6
				c5.9-13.6,6.2-28.6,0.8-42c-5.5-13.7-16-24.5-29.6-30.4c-13.6-5.9-28.5-6.1-42.2-0.6c-14.2,5.7-24.5,15.9-30.6,30.4
				c-2.3,5.4-8.5,7.9-13.9,5.7c-5.4-2.3-7.9-8.5-5.7-13.9c8.3-19.6,22.9-34.1,42.3-41.9c9.6-3.8,19.6-5.7,29.9-5.4
				c9.9,0.2,19.5,2.3,28.6,6.3c9.1,3.9,17.3,9.5,24.2,16.6c7.2,7.3,12.8,15.8,16.6,25.4c3.8,9.5,5.6,19.5,5.3,29.7
				c-0.2,9.9-2.4,19.5-6.3,28.7c-4,9.2-9.6,17.3-16.6,24.3c-7.4,7.3-16,12.9-25.7,16.6c-8.2,3.2-17.2,5-26,5.3
				C140.6,190.6,139.9,190.6,139.2,190.6L139.2,190.6z"/>
		</g>
	</g>
</g>
<g>
	<path class="st2" d="M78.1,224.5c0,5-1.2,8.8-3.7,11.4s-6,4-10.6,4s-8.1-1.3-10.6-4s-3.7-6.5-3.7-11.5s1.2-8.8,3.7-11.4
		s6-3.9,10.6-3.9s8.1,1.3,10.6,4S78.1,219.6,78.1,224.5z M56.3,224.5c0,3.3,0.6,5.9,1.9,7.6s3.2,2.5,5.7,2.5c5.1,0,7.6-3.4,7.6-10.1
		c0-6.8-2.5-10.1-7.6-10.1c-2.5,0-4.4,0.9-5.7,2.6C56.9,218.7,56.3,221.2,56.3,224.5z"/>
	<path class="st2" d="M96.5,240c-2.7,0-4.8-1-6.3-2.9h-0.3c0.2,1.9,0.3,3,0.3,3.3v9.3h-6.3v-33h5.1l0.9,3h0.3
		c1.5-2.3,3.6-3.4,6.5-3.4c2.7,0,4.8,1,6.4,3.1s2.3,5,2.3,8.7c0,2.4-0.4,4.6-1.1,6.4s-1.7,3.2-3.1,4.1S98.2,240,96.5,240z
		 M94.6,221.2c-1.5,0-2.7,0.5-3.4,1.4c-0.7,1-1.1,2.5-1.1,4.7v0.7c0,2.5,0.4,4.2,1.1,5.3s1.9,1.6,3.5,1.6c2.8,0,4.2-2.3,4.2-6.9
		c0-2.3-0.3-3.9-1-5.1C97.2,221.8,96.1,221.2,94.6,221.2z"/>
	<path class="st2" d="M120.8,240c-3.7,0-6.6-1-8.7-3.1s-3.1-4.9-3.1-8.7c0-3.8,1-6.8,2.9-8.9c1.9-2.1,4.6-3.1,8-3.1
		c3.2,0,5.8,0.9,7.6,2.8s2.7,4.4,2.7,7.6v3h-14.8c0.1,1.8,0.6,3.2,1.6,4.2s2.4,1.5,4.1,1.5c1.4,0,2.7-0.1,3.9-0.4s2.5-0.7,3.9-1.4
		v4.8c-1.1,0.5-2.3,1-3.5,1.2C124.1,239.8,122.6,240,120.8,240z M119.9,220.7c-1.3,0-2.4,0.4-3.1,1.3c-0.8,0.8-1.2,2-1.3,3.6h8.8
		c0-1.5-0.4-2.7-1.2-3.6C122.3,221.1,121.3,220.7,119.9,220.7z"/>
	<path class="st2" d="M156.4,239.6h-6.3v-13.4c0-1.7-0.3-2.9-0.9-3.7c-0.6-0.8-1.5-1.2-2.8-1.2c-1.8,0-3,0.6-3.8,1.8
		c-0.8,1.2-1.2,3.1-1.2,5.8v10.8h-6.3v-22.9h4.8l0.8,2.9h0.3c0.7-1.1,1.7-1.9,2.9-2.5c1.2-0.6,2.6-0.9,4.2-0.9
		c2.7,0,4.7,0.7,6.1,2.2c1.4,1.4,2.1,3.5,2.1,6.2V239.6z"/>
	<path class="st2" d="M163.3,239.6v-30h6.4v24.7h12.2v5.2H163.3z"/>
	<path class="st2" d="M186.3,210.7c0-2,1.1-3.1,3.4-3.1s3.4,1,3.4,3.1c0,1-0.3,1.7-0.9,2.3s-1.4,0.8-2.6,0.8
		C187.5,213.8,186.3,212.8,186.3,210.7z M192.8,239.6h-6.3v-22.9h6.3V239.6z"/>
	<path class="st2" d="M215.4,232.8c0,2.4-0.8,4.1-2.5,5.4s-4.1,1.8-7.3,1.8c-1.7,0-3.1-0.1-4.3-0.3c-1.2-0.2-2.3-0.6-3.3-1v-5.2
		c1.2,0.5,2.5,1,3.9,1.4s2.7,0.6,3.8,0.6c2.3,0,3.4-0.7,3.4-2c0-0.5-0.2-0.9-0.5-1.2c-0.3-0.3-0.8-0.7-1.6-1c-0.7-0.4-1.7-0.8-3-1.4
		c-1.8-0.7-3.1-1.4-3.9-2.1s-1.4-1.3-1.8-2.2s-0.6-1.8-0.6-3c0-2,0.8-3.6,2.4-4.7c1.6-1.1,3.8-1.7,6.7-1.7c2.8,0,5.4,0.6,8.1,1.8
		l-1.9,4.5c-1.1-0.5-2.2-0.9-3.2-1.2s-2-0.5-3.1-0.5c-1.8,0-2.8,0.5-2.8,1.5c0,0.6,0.3,1,0.9,1.5s1.9,1,3.9,1.8
		c1.8,0.7,3.1,1.4,3.9,2s1.4,1.4,1.8,2.2S215.4,231.6,215.4,232.8z"/>
	<path class="st2" d="M229.9,235c1.1,0,2.4-0.2,3.9-0.7v4.7c-1.6,0.7-3.5,1-5.7,1c-2.5,0-4.3-0.6-5.5-1.9s-1.7-3.2-1.7-5.7v-11.1h-3
		v-2.6l3.4-2.1l1.8-4.8h4v4.9h6.4v4.7h-6.4v11.1c0,0.9,0.2,1.5,0.7,2S229.1,235,229.9,235z"/>
</g>
</svg>
